<mxfile host="app.diagrams.net" modified="2023-07-06T00:34:01.871Z" agent="Mozilla/5.0 (X11; Linux x86_64) AppleWebKit/537.36 (KHTML, like Gecko) Chrome/114.0.0.0 Safari/537.36" version="21.6.1" etag="M52PVcFwNGAckRS48uwc" type="github">
  <diagram name="Page-1" id="_NP1EIEcUghIkS4Ms4h1">
    <mxGraphModel>
      <root>
        <mxCell id="0" />
        <mxCell id="1" parent="0" />
      </root>
    </mxGraphModel>
  </diagram>
</mxfile>
